# xmcd
#
# Track frame offsets:
#	150
#	11599
#	24214
#	41711
#	55160
#	72171
#	93142
#	105808
#	124641
#	138239
#
# Disc length: 2046 seconds
#
# Revision: 0
# Processed by: cddbd v1.5.1PL2 Copyright (c) Steve Scherf et al.
# Submitted via: dBpowerAMP V4.0
#
DISCID=6f07fc0a
DTITLE=Tim McGraw - Not a moment too soon
DYEAR=1900
DGENRE=
TTITLE0=It doesn't get any countrier than this
TTITLE1=Give it to me strait
TTITLE2=Wouldn't want it any other way
TTITLE3=Down on the farm
TTITLE4=Not a moment too soon
TTITLE5=Indian outlaw
TTITLE6=Refried dreams
TTITLE7=Don't take the girl
TTITLE8=40 days 40 nights
TTITLE9=Ain't that just like a dream
EXTD=
EXTT0=
EXTT1=
EXTT2=
EXTT3=
EXTT4=
EXTT5=
EXTT6=
EXTT7=
EXTT8=
EXTT9=
PLAYORDER=
